<?xml version="1.0" encoding="UTF-8" standalone="no"?><svg xmlns="http://www.w3.org/2000/svg" xmlns:xlink="http://www.w3.org/1999/xlink" contentScriptType="application/ecmascript" contentStyleType="text/css" height="529px" preserveAspectRatio="none" style="width:1582px;height:529px;" version="1.1" viewBox="0 0 1582 529" width="1582px" zoomAndPan="magnify"><defs><filter height="300%" id="fwy5njzd8ic87" width="300%" x="-1" y="-1"><feGaussianBlur result="blurOut" stdDeviation="2.0"/><feColorMatrix in="blurOut" result="blurOut2" type="matrix" values="0 0 0 0 0 0 0 0 0 0 0 0 0 0 0 0 0 0 .4 0"/><feOffset dx="4.0" dy="4.0" in="blurOut2" result="blurOut3"/><feBlend in="SourceGraphic" in2="blurOut3" mode="normal"/></filter></defs><g><line style="stroke: #A80036; stroke-width: 1.0; stroke-dasharray: 5.0,5.0;" x1="49" x2="49" y1="89.0679" y2="439.1281"/><line style="stroke: #A80036; stroke-width: 1.0; stroke-dasharray: 5.0,5.0;" x1="203" x2="203" y1="89.0679" y2="439.1281"/><line style="stroke: #A80036; stroke-width: 1.0; stroke-dasharray: 5.0,5.0;" x1="444" x2="444" y1="89.0679" y2="439.1281"/><line style="stroke: #A80036; stroke-width: 1.0; stroke-dasharray: 5.0,5.0;" x1="603" x2="603" y1="89.0679" y2="439.1281"/><line style="stroke: #A80036; stroke-width: 1.0; stroke-dasharray: 5.0,5.0;" x1="839.5" x2="839.5" y1="89.0679" y2="439.1281"/><line style="stroke: #A80036; stroke-width: 1.0; stroke-dasharray: 5.0,5.0;" x1="998.5" x2="998.5" y1="89.0679" y2="439.1281"/><line style="stroke: #A80036; stroke-width: 1.0; stroke-dasharray: 5.0,5.0;" x1="1278.5" x2="1278.5" y1="89.0679" y2="439.1281"/><line style="stroke: #A80036; stroke-width: 1.0; stroke-dasharray: 5.0,5.0;" x1="1518.5" x2="1518.5" y1="89.0679" y2="439.1281"/><text fill="#000000" font-family="sans-serif" font-size="14" lengthAdjust="spacingAndGlyphs" textLength="77" x="8" y="84.9659">Emacs user</text><ellipse cx="49.5" cy="13" fill="#FEFECE" filter="url(#fwy5njzd8ic87)" rx="8" ry="8" style="stroke: #A80036; stroke-width: 2.0;"/><path d="M49.5,21 L49.5,48 M36.5,29 L62.5,29 M49.5,48 L36.5,63 M49.5,48 L62.5,63 " fill="none" filter="url(#fwy5njzd8ic87)" style="stroke: #A80036; stroke-width: 2.0;"/><text fill="#000000" font-family="sans-serif" font-size="14" lengthAdjust="spacingAndGlyphs" textLength="77" x="8" y="453.094">Emacs user</text><ellipse cx="49.5" cy="467.196" fill="#FEFECE" filter="url(#fwy5njzd8ic87)" rx="8" ry="8" style="stroke: #A80036; stroke-width: 2.0;"/><path d="M49.5,475.196 L49.5,502.196 M36.5,483.196 L62.5,483.196 M49.5,502.196 L36.5,517.196 M49.5,502.196 L62.5,517.196 " fill="none" filter="url(#fwy5njzd8ic87)" style="stroke: #A80036; stroke-width: 2.0;"/><rect fill="#FEFECE" filter="url(#fwy5njzd8ic87)" height="33.0679" style="stroke: #A80036; stroke-width: 1.5;" width="147" x="128" y="51"/><text fill="#000000" font-family="sans-serif" font-size="14" lengthAdjust="spacingAndGlyphs" textLength="133" x="135" y="72.9659">Backend dispatcher</text><rect fill="#FEFECE" filter="url(#fwy5njzd8ic87)" height="33.0679" style="stroke: #A80036; stroke-width: 1.5;" width="147" x="128" y="438.1281"/><text fill="#000000" font-family="sans-serif" font-size="14" lengthAdjust="spacingAndGlyphs" textLength="133" x="135" y="460.094">Backend dispatcher</text><rect fill="#FEFECE" filter="url(#fwy5njzd8ic87)" height="33.0679" style="stroke: #A80036; stroke-width: 1.5;" width="139" x="373" y="51"/><text fill="#000000" font-family="sans-serif" font-size="14" lengthAdjust="spacingAndGlyphs" textLength="125" x="380" y="72.9659">Native CLI adapter</text><rect fill="#FEFECE" filter="url(#fwy5njzd8ic87)" height="33.0679" style="stroke: #A80036; stroke-width: 1.5;" width="139" x="373" y="438.1281"/><text fill="#000000" font-family="sans-serif" font-size="14" lengthAdjust="spacingAndGlyphs" textLength="125" x="380" y="460.094">Native CLI adapter</text><rect fill="#FEFECE" filter="url(#fwy5njzd8ic87)" height="33.0679" style="stroke: #A80036; stroke-width: 1.5;" width="151" x="526" y="51"/><text fill="#000000" font-family="sans-serif" font-size="14" lengthAdjust="spacingAndGlyphs" textLength="137" x="533" y="72.9659">MCP launch adapter</text><rect fill="#FEFECE" filter="url(#fwy5njzd8ic87)" height="33.0679" style="stroke: #A80036; stroke-width: 1.5;" width="151" x="526" y="438.1281"/><text fill="#000000" font-family="sans-serif" font-size="14" lengthAdjust="spacingAndGlyphs" textLength="137" x="533" y="460.094">MCP launch adapter</text><rect fill="#FEFECE" filter="url(#fwy5njzd8ic87)" height="33.0679" style="stroke: #A80036; stroke-width: 1.5;" width="128" x="773.5" y="51"/><text fill="#000000" font-family="sans-serif" font-size="14" lengthAdjust="spacingAndGlyphs" textLength="114" x="780.5" y="72.9659">MCP HTTP server</text><rect fill="#FEFECE" filter="url(#fwy5njzd8ic87)" height="33.0679" style="stroke: #A80036; stroke-width: 1.5;" width="128" x="773.5" y="438.1281"/><text fill="#000000" font-family="sans-serif" font-size="14" lengthAdjust="spacingAndGlyphs" textLength="114" x="780.5" y="460.094">MCP HTTP server</text><rect fill="#FEFECE" filter="url(#fwy5njzd8ic87)" height="33.0679" style="stroke: #A80036; stroke-width: 1.5;" width="163" x="915.5" y="51"/><text fill="#000000" font-family="sans-serif" font-size="14" lengthAdjust="spacingAndGlyphs" textLength="149" x="922.5" y="72.9659">Session infrastructure</text><rect fill="#FEFECE" filter="url(#fwy5njzd8ic87)" height="33.0679" style="stroke: #A80036; stroke-width: 1.5;" width="163" x="915.5" y="438.1281"/><text fill="#000000" font-family="sans-serif" font-size="14" lengthAdjust="spacingAndGlyphs" textLength="149" x="922.5" y="460.094">Session infrastructure</text><rect fill="#FEFECE" filter="url(#fwy5njzd8ic87)" height="33.0679" style="stroke: #A80036; stroke-width: 1.5;" width="185" x="1184.5" y="51"/><text fill="#000000" font-family="sans-serif" font-size="14" lengthAdjust="spacingAndGlyphs" textLength="171" x="1191.5" y="72.9659">Terminal implementation</text><rect fill="#FEFECE" filter="url(#fwy5njzd8ic87)" height="33.0679" style="stroke: #A80036; stroke-width: 1.5;" width="185" x="1184.5" y="438.1281"/><text fill="#000000" font-family="sans-serif" font-size="14" lengthAdjust="spacingAndGlyphs" textLength="171" x="1191.5" y="460.094">Terminal implementation</text><rect fill="#FEFECE" filter="url(#fwy5njzd8ic87)" height="33.0679" style="stroke: #A80036; stroke-width: 1.5;" width="109" x="1462.5" y="51"/><text fill="#000000" font-family="sans-serif" font-size="14" lengthAdjust="spacingAndGlyphs" textLength="95" x="1469.5" y="72.9659">AI CLI process</text><rect fill="#FEFECE" filter="url(#fwy5njzd8ic87)" height="33.0679" style="stroke: #A80036; stroke-width: 1.5;" width="109" x="1462.5" y="438.1281"/><text fill="#000000" font-family="sans-serif" font-size="14" lengthAdjust="spacingAndGlyphs" textLength="95" x="1469.5" y="460.094">AI CLI process</text><polygon fill="#A80036" points="191.5,118.7739,201.5,122.7739,191.5,126.7739,195.5,122.7739" style="stroke: #A80036; stroke-width: 1.0;"/><line style="stroke: #A80036; stroke-width: 1.0;" x1="49.5" x2="197.5" y1="122.7739" y2="122.7739"/><text fill="#000000" font-family="sans-serif" font-size="13" lengthAdjust="spacingAndGlyphs" textLength="130" x="56.5" y="116.9649">Start current backend</text><polygon fill="#A80036" points="432.5,150.4799,442.5,154.4799,432.5,158.4799,436.5,154.4799" style="stroke: #A80036; stroke-width: 1.0;"/><line style="stroke: #A80036; stroke-width: 1.0;" x1="203.5" x2="438.5" y1="154.4799" y2="154.4799"/><text fill="#000000" font-family="sans-serif" font-size="13" lengthAdjust="spacingAndGlyphs" textLength="217" x="210.5" y="148.6709">Invoke selected native start function</text><polygon fill="#A80036" points="987,182.186,997,186.186,987,190.186,991,186.186" style="stroke: #A80036; stroke-width: 1.0;"/><line style="stroke: #A80036; stroke-width: 1.0;" x1="444.5" x2="993" y1="186.186" y2="186.186"/><text fill="#000000" font-family="sans-serif" font-size="13" lengthAdjust="spacingAndGlyphs" textLength="310" x="451.5" y="180.377">Request CLI session with program/switches/options</text><polygon fill="#A80036" points="614.5,213.892,604.5,217.892,614.5,221.892,610.5,217.892" style="stroke: #A80036; stroke-width: 1.0;"/><line style="stroke: #A80036; stroke-width: 1.0;" x1="608.5" x2="998" y1="217.892" y2="217.892"/><text fill="#000000" font-family="sans-serif" font-size="13" lengthAdjust="spacingAndGlyphs" textLength="229" x="620.5" y="212.083">Prepare launch if adapter configured it</text><polygon fill="#A80036" points="827.5,245.598,837.5,249.598,827.5,253.598,831.5,249.598" style="stroke: #A80036; stroke-width: 1.0;"/><line style="stroke: #A80036; stroke-width: 1.0;" x1="603.5" x2="833.5" y1="249.598" y2="249.598"/><text fill="#000000" font-family="sans-serif" font-size="13" lengthAdjust="spacingAndGlyphs" textLength="212" x="610.5" y="243.789">Ensure local server and session URL</text><polygon fill="#A80036" points="987,277.304,997,281.304,987,285.304,991,281.304" style="stroke: #A80036; stroke-width: 1.0;"/><line style="stroke: #A80036; stroke-width: 1.0; stroke-dasharray: 2.0,2.0;" x1="603.5" x2="993" y1="281.304" y2="281.304"/><text fill="#000000" font-family="sans-serif" font-size="13" lengthAdjust="spacingAndGlyphs" textLength="242" x="610.5" y="275.495">Return adjusted command and callbacks</text><polygon fill="#A80036" points="1267,309.01,1277,313.01,1267,317.01,1271,313.01" style="stroke: #A80036; stroke-width: 1.0;"/><line style="stroke: #A80036; stroke-width: 1.0;" x1="999" x2="1273" y1="313.01" y2="313.01"/><text fill="#000000" font-family="sans-serif" font-size="13" lengthAdjust="spacingAndGlyphs" textLength="183" x="1006" y="307.201">Create or reuse terminal buffer</text><polygon fill="#A80036" points="1507,340.716,1517,344.716,1507,348.716,1511,344.716" style="stroke: #A80036; stroke-width: 1.0;"/><line style="stroke: #A80036; stroke-width: 1.0;" x1="1279" x2="1513" y1="344.716" y2="344.716"/><text fill="#000000" font-family="sans-serif" font-size="13" lengthAdjust="spacingAndGlyphs" textLength="216" x="1286" y="338.907">Start command in working directory</text><line style="stroke: #A80036; stroke-width: 1.0;" x1="999" x2="1041" y1="376.4221" y2="376.4221"/><line style="stroke: #A80036; stroke-width: 1.0;" x1="1041" x2="1041" y1="376.4221" y2="389.4221"/><line style="stroke: #A80036; stroke-width: 1.0;" x1="1000" x2="1041" y1="389.4221" y2="389.4221"/><polygon fill="#A80036" points="1010,385.4221,1000,389.4221,1010,393.4221,1006,389.4221" style="stroke: #A80036; stroke-width: 1.0;"/><text fill="#000000" font-family="sans-serif" font-size="13" lengthAdjust="spacingAndGlyphs" textLength="266" x="1006" y="370.6131">Register buffer, process, repo, task metadata</text><polygon fill="#A80036" points="60.5,417.1281,50.5,421.1281,60.5,425.1281,56.5,421.1281" style="stroke: #A80036; stroke-width: 1.0;"/><line style="stroke: #A80036; stroke-width: 1.0;" x1="54.5" x2="998" y1="421.1281" y2="421.1281"/><text fill="#000000" font-family="sans-serif" font-size="13" lengthAdjust="spacingAndGlyphs" textLength="167" x="66.5" y="415.3191">Display session side window</text><!--MD5=[a7a70173d0a70bd8075aec1a09b7b22f]
@startuml
actor "Emacs user" as User
participant "Backend dispatcher" as Backend
participant "Native CLI adapter" as Adapter
participant "MCP launch adapter" as McpAdapter
participant "MCP HTTP server" as Http
participant "Session infrastructure" as Session
participant "Terminal implementation" as Terminal
participant "AI CLI process" as Cli

User -> Backend: Start current backend
Backend -> Adapter: Invoke selected native start function
Adapter -> Session: Request CLI session with program/switches/options
Session -> McpAdapter: Prepare launch if adapter configured it
McpAdapter -> Http: Ensure local server and session URL
McpAdapter - -> Session: Return adjusted command and callbacks
Session -> Terminal: Create or reuse terminal buffer
Terminal -> Cli: Start command in working directory
Session -> Session: Register buffer, process, repo, task metadata
Session -> User: Display session side window
@enduml

PlantUML version 1.2020.02(Sun Mar 01 02:22:07 PST 2020)
(GPL source distribution)
Java Runtime: OpenJDK Runtime Environment
JVM: OpenJDK 64-Bit Server VM
Java Version: 11.0.31+11-post-1ubuntu1-24.04.2-Ubuntu
Operating System: Linux
Default Encoding: UTF-8
Language: en
Country: US
--></g></svg>